<?xml version="1.0" standalone="no"?>
<!DOCTYPE svg PUBLIC "-//W3C//DTD SVG 20010904//EN"
 "http://www.w3.org/TR/2001/REC-SVG-20010904/DTD/svg10.dtd">
<svg version="1.0" xmlns="http://www.w3.org/2000/svg"
 width="393.000000pt" height="121.000000pt" viewBox="0 0 393.000000 121.000000"
 preserveAspectRatio="xMidYMid meet">

<g transform="translate(0.000000,121.000000) scale(0.100000,-0.100000)"
fill="#000000" stroke="none">
<path d="M2455 651 c-147 -36 -225 -203 -158 -334 15 -31 14 -31 93 -2 89 33
306 2 283 -40 -5 -8 -24 -26 -43 -40 -19 -14 -29 -25 -24 -25 6 0 29 16 51 35
142 122 90 355 -91 402 -55 14 -66 15 -111 4z m45 -76 c0 -70 1 -69 -63 -58
-37 6 -39 7 -33 37 l5 31 -16 -30 c-17 -31 -18 -36 -21 -92 -2 -32 -3 -33 -47
-33 -25 0 -45 3 -45 8 0 4 18 6 40 4 34 -3 40 -1 40 14 0 11 3 29 6 40 8 28
-35 42 -53 17 -14 -19 -18 -6 -4 15 5 8 18 11 37 7 27 -5 28 -5 7 6 -13 7 -23
15 -23 19 0 16 72 62 89 57 10 -2 26 2 36 9 37 27 45 18 45 -51z m58 49 c25
-17 66 -90 54 -97 -4 -3 -28 -8 -54 -12 l-48 -7 0 66 c0 71 7 79 48 50z m92
-30 c34 -29 35 -43 2 -55 -19 -7 -24 -3 -39 29 -9 20 -19 40 -21 45 -9 17 29
5 58 -19z m64 -94 c25 -64 22 -72 -26 -68 -42 3 -43 4 -48 43 -4 33 -1 42 15
52 32 20 42 15 59 -27z m-251 4 c34 -6 37 -9 37 -40 l0 -34 -60 0 c-57 0 -60
1 -60 24 0 56 10 62 83 50z m165 -36 l3 -38 -60 0 -61 0 0 34 c0 32 3 35 33
39 72 9 82 5 85 -35z m-331 0 c-3 -8 -6 -5 -6 6 -1 11 2 17 5 13 3 -3 4 -12 1
-19z m75 -80 l1 -33 4 33 4 32 60 0 59 0 0 -39 0 -38 -52 -6 c-34 -3 -56 -1
-60 7 -5 7 -8 6 -8 -4 0 -8 -12 -21 -28 -28 -32 -15 -46 -2 -62 57 -12 44 -7
51 41 51 37 0 39 -2 41 -32z m258 -7 c0 -22 -3 -42 -7 -44 -5 -3 -32 -2 -60 0
-52 5 -53 6 -53 38 0 17 3 35 7 38 3 4 30 7 60 7 l53 0 0 -39z m97 24 c5 -15
-23 -105 -33 -105 -3 0 -18 6 -33 14 -24 13 -27 20 -24 48 3 18 6 39 8 46 6
18 74 15 82 -3z"/>
<path d="M2447 604 c-24 -24 -43 -61 -35 -69 1 -2 20 -6 41 -10 l37 -7 0 56
c0 31 -4 56 -9 56 -4 0 -20 -12 -34 -26z"/>
<path d="M2376 587 c-28 -20 -34 -37 -13 -37 8 0 20 12 27 28 7 15 15 22 17
14 5 -12 23 -7 23 7 0 14 -27 8 -54 -12z"/>
<path d="M2663 523 c-8 -2 -13 -22 -13 -44 0 -38 1 -39 35 -39 34 0 35 1 29
28 -13 55 -24 66 -51 55z"/>
<path d="M1206 504 c-27 -26 -19 -59 21 -91 29 -24 35 -34 28 -49 -8 -18 -9
-18 -12 4 -3 16 -11 22 -29 22 -30 0 -32 -22 -4 -50 38 -38 90 -18 90 34 0 27
-8 40 -37 64 -31 25 -36 33 -25 43 10 11 12 10 12 -4 0 -11 8 -17 25 -17 15 0
25 6 25 14 0 22 -29 46 -55 46 -13 0 -31 -7 -39 -16z"/>
<path d="M1320 430 c0 -75 2 -81 26 -97 24 -15 29 -15 53 -2 24 14 26 20 29
97 3 82 3 82 -22 82 -25 0 -25 -2 -29 -82 l-3 -83 -2 83 c-2 80 -3 82 -27 82
-25 0 -25 -1 -25 -80z"/>
<path d="M1450 420 l0 -91 53 3 52 3 0 85 0 85 -52 3 -53 3 0 -91z m70 -1 c0
-33 -4 -59 -10 -59 -6 0 -10 29 -10 66 0 41 4 63 10 59 6 -3 10 -33 10 -66z"/>
<path d="M1597 488 c-3 -13 -9 -53 -12 -90 -7 -65 -6 -68 14 -68 12 0 21 6 21
15 0 8 7 15 15 15 8 0 15 -7 15 -15 0 -8 9 -15 20 -15 24 0 25 13 9 111 -12
69 -12 69 -44 69 -26 0 -34 -5 -38 -22z m40 -80 c-2 -13 -4 -5 -4 17 -1 22 1
32 4 23 2 -10 2 -28 0 -40z"/>
<path d="M1710 421 c0 -83 2 -91 19 -91 16 0 20 8 23 37 2 30 8 38 28 43 22 5
25 11 25 50 l0 45 -47 3 -48 3 0 -90z m65 39 c0 -13 -6 -25 -12 -27 -9 -3 -13
6 -13 27 0 21 4 30 13 28 6 -3 12 -15 12 -28z"/>
<path d="M1830 420 l0 -90 40 0 c29 0 40 4 40 15 0 8 -9 15 -20 15 -15 0 -20
7 -20 25 0 16 6 25 15 25 8 0 15 7 15 15 0 8 -7 15 -15 15 -8 0 -15 9 -15 20
0 13 7 20 20 20 11 0 20 7 20 15 0 11 -11 15 -40 15 l-40 0 0 -90z"/>
<path d="M1930 420 l0 -90 49 0 c35 0 51 4 55 16 11 28 6 140 -6 152 -7 7 -31
12 -55 12 l-43 0 0 -90z m65 2 c0 -85 -19 -84 -23 1 -2 53 0 68 10 65 9 -3 13
-25 13 -66z"/>
<path d="M2070 420 c0 -83 1 -90 20 -90 19 0 20 7 20 90 0 83 -1 90 -20 90
-19 0 -20 -7 -20 -90z"/>
<path d="M2147 495 c-4 -8 -9 -48 -13 -90 -6 -72 -6 -75 15 -75 12 0 21 6 21
15 0 8 7 15 15 15 9 0 15 -10 15 -26 0 -36 26 -76 67 -104 28 -19 52 -25 107
-28 42 -2 75 -9 81 -17 8 -10 25 1 75 46 l65 58 -94 1 c-74 0 -92 -3 -83 -12
22 -22 13 -28 -40 -28 -57 0 -109 24 -127 58 -5 10 -15 50 -21 88 -19 117 -17
114 -49 114 -16 0 -31 -6 -34 -15z m43 -65 c0 -22 -4 -40 -10 -40 -11 0 -13
39 -4 64 10 26 14 19 14 -24z"/>
</g>
</svg>
