<svg width="20" height="20" viewBox="0 0 20 20" fill="none" xmlns="http://www.w3.org/2000/svg">
<mask id="mask0_91_589" style="mask-type:alpha" maskUnits="userSpaceOnUse" x="0" y="0" width="20" height="20">
<rect width="20" height="20" fill="#D9D9D9"/>
</mask>
<g mask="url(#mask0_91_589)">
<path d="M5.83341 14.1667H14.1667V12.5H5.83341V14.1667ZM10.0001 11.6667L13.3334 8.33333L12.1667 7.16667L10.8334 8.45833V5H9.16675V8.45833L7.83342 7.16667L6.66675 8.33333L10.0001 11.6667ZM10.0001 18.3333C8.8473 18.3333 7.76397 18.1146 6.75008 17.6771C5.73619 17.2396 4.85425 16.6458 4.10425 15.8958C3.35425 15.1458 2.7605 14.2639 2.323 13.25C1.8855 12.2361 1.66675 11.1528 1.66675 10C1.66675 8.84722 1.8855 7.76389 2.323 6.75C2.7605 5.73611 3.35425 4.85417 4.10425 4.10417C4.85425 3.35417 5.73619 2.76042 6.75008 2.32292C7.76397 1.88542 8.8473 1.66667 10.0001 1.66667C11.1529 1.66667 12.2362 1.88542 13.2501 2.32292C14.264 2.76042 15.1459 3.35417 15.8959 4.10417C16.6459 4.85417 17.2397 5.73611 17.6772 6.75C18.1147 7.76389 18.3334 8.84722 18.3334 10C18.3334 11.1528 18.1147 12.2361 17.6772 13.25C17.2397 14.2639 16.6459 15.1458 15.8959 15.8958C15.1459 16.6458 14.264 17.2396 13.2501 17.6771C12.2362 18.1146 11.1529 18.3333 10.0001 18.3333ZM10.0001 16.6667C11.8612 16.6667 13.4376 16.0208 14.7292 14.7292C16.0209 13.4375 16.6667 11.8611 16.6667 10C16.6667 8.13889 16.0209 6.5625 14.7292 5.27083C13.4376 3.97917 11.8612 3.33333 10.0001 3.33333C8.13897 3.33333 6.56258 3.97917 5.27092 5.27083C3.97925 6.5625 3.33341 8.13889 3.33341 10C3.33341 11.8611 3.97925 13.4375 5.27092 14.7292C6.56258 16.0208 8.13897 16.6667 10.0001 16.6667Z" fill="#45B0E1"/>
</g>
</svg>
