<svg width="368" height="58" viewBox="0 0 368 58" fill="none" xmlns="http://www.w3.org/2000/svg">
<g filter="url(#filter0_d_231_595)">
<rect x="4" y="3" width="360" height="50" rx="10" fill="white"/>
<path d="M171.469 33.5V22.1406H173.781V31.5703H179.531V33.5H171.469ZM180.664 29.2344C180.664 28.5052 180.844 27.7995 181.203 27.1172C181.562 26.4349 182.07 25.9141 182.727 25.5547C183.388 25.1953 184.125 25.0156 184.938 25.0156C186.193 25.0156 187.221 25.4245 188.023 26.2422C188.826 27.0547 189.227 28.0833 189.227 29.3281C189.227 30.5833 188.82 31.625 188.008 32.4531C187.201 33.276 186.182 33.6875 184.953 33.6875C184.193 33.6875 183.466 33.5156 182.773 33.1719C182.086 32.8281 181.562 32.3255 181.203 31.6641C180.844 30.9974 180.664 30.1875 180.664 29.2344ZM182.914 29.3516C182.914 30.1745 183.109 30.8047 183.5 31.2422C183.891 31.6797 184.372 31.8984 184.945 31.8984C185.518 31.8984 185.997 31.6797 186.383 31.2422C186.773 30.8047 186.969 30.1693 186.969 29.3359C186.969 28.5234 186.773 27.8984 186.383 27.4609C185.997 27.0234 185.518 26.8047 184.945 26.8047C184.372 26.8047 183.891 27.0234 183.5 27.4609C183.109 27.8984 182.914 28.5286 182.914 29.3516ZM190.75 34.0469L193.258 34.3516C193.299 34.6432 193.396 34.8438 193.547 34.9531C193.755 35.1094 194.083 35.1875 194.531 35.1875C195.104 35.1875 195.534 35.1016 195.82 34.9297C196.013 34.8151 196.159 34.6302 196.258 34.375C196.326 34.1927 196.359 33.8568 196.359 33.3672V32.1562C195.703 33.0521 194.875 33.5 193.875 33.5C192.76 33.5 191.878 33.0286 191.227 32.0859C190.716 31.3411 190.461 30.4141 190.461 29.3047C190.461 27.9141 190.794 26.8516 191.461 26.1172C192.133 25.3828 192.966 25.0156 193.961 25.0156C194.987 25.0156 195.833 25.4661 196.5 26.3672V25.2031H198.555V32.6484C198.555 33.6276 198.474 34.3594 198.312 34.8438C198.151 35.3281 197.924 35.7083 197.633 35.9844C197.341 36.2604 196.951 36.4766 196.461 36.6328C195.977 36.7891 195.362 36.8672 194.617 36.8672C193.211 36.8672 192.214 36.625 191.625 36.1406C191.036 35.6615 190.742 35.0521 190.742 34.3125C190.742 34.2396 190.745 34.151 190.75 34.0469ZM192.711 29.1797C192.711 30.0599 192.88 30.7057 193.219 31.1172C193.562 31.5234 193.984 31.7266 194.484 31.7266C195.021 31.7266 195.474 31.5182 195.844 31.1016C196.214 30.6797 196.398 30.0573 196.398 29.2344C196.398 28.375 196.221 27.737 195.867 27.3203C195.513 26.9036 195.065 26.6953 194.523 26.6953C193.997 26.6953 193.562 26.901 193.219 27.3125C192.88 27.7188 192.711 28.3411 192.711 29.1797ZM200.227 29.2344C200.227 28.5052 200.406 27.7995 200.766 27.1172C201.125 26.4349 201.633 25.9141 202.289 25.5547C202.951 25.1953 203.688 25.0156 204.5 25.0156C205.755 25.0156 206.784 25.4245 207.586 26.2422C208.388 27.0547 208.789 28.0833 208.789 29.3281C208.789 30.5833 208.383 31.625 207.57 32.4531C206.763 33.276 205.745 33.6875 204.516 33.6875C203.755 33.6875 203.029 33.5156 202.336 33.1719C201.648 32.8281 201.125 32.3255 200.766 31.6641C200.406 30.9974 200.227 30.1875 200.227 29.2344ZM202.477 29.3516C202.477 30.1745 202.672 30.8047 203.062 31.2422C203.453 31.6797 203.935 31.8984 204.508 31.8984C205.081 31.8984 205.56 31.6797 205.945 31.2422C206.336 30.8047 206.531 30.1693 206.531 29.3359C206.531 28.5234 206.336 27.8984 205.945 27.4609C205.56 27.0234 205.081 26.8047 204.508 26.8047C203.935 26.8047 203.453 27.0234 203.062 27.4609C202.672 27.8984 202.477 28.5286 202.477 29.3516ZM215.977 33.5V32.2578C215.674 32.7005 215.276 33.0495 214.781 33.3047C214.292 33.5599 213.773 33.6875 213.227 33.6875C212.669 33.6875 212.169 33.5651 211.727 33.3203C211.284 33.0755 210.964 32.7318 210.766 32.2891C210.568 31.8464 210.469 31.2344 210.469 30.4531V25.2031H212.664V29.0156C212.664 30.1823 212.703 30.8984 212.781 31.1641C212.865 31.4245 213.013 31.6328 213.227 31.7891C213.44 31.9401 213.711 32.0156 214.039 32.0156C214.414 32.0156 214.75 31.9141 215.047 31.7109C215.344 31.5026 215.547 31.2474 215.656 30.9453C215.766 30.638 215.82 29.8906 215.82 28.7031V25.2031H218.016V33.5H215.977ZM224.102 25.2031V26.9531H222.602V30.2969C222.602 30.974 222.615 31.3698 222.641 31.4844C222.672 31.5938 222.737 31.6849 222.836 31.7578C222.94 31.8307 223.065 31.8672 223.211 31.8672C223.414 31.8672 223.708 31.7969 224.094 31.6562L224.281 33.3594C223.771 33.5781 223.193 33.6875 222.547 33.6875C222.151 33.6875 221.794 33.6224 221.477 33.4922C221.159 33.3568 220.924 33.1849 220.773 32.9766C220.628 32.763 220.526 32.4766 220.469 32.1172C220.422 31.862 220.398 31.3464 220.398 30.5703V26.9531H219.391V25.2031H220.398V23.5547L222.602 22.2734V25.2031H224.102Z" fill="black" fill-opacity="0.5"/>
<mask id="mask0_231_595" style="mask-type:alpha" maskUnits="userSpaceOnUse" x="138" y="16" width="24" height="24">
<rect x="138" y="16" width="24" height="24" fill="#D9D9D9"/>
</mask>
<g mask="url(#mask0_231_595)">
<path d="M158.15 29H146V27H158.15L156.6 25.45L158 24L162 28L158 32L156.6 30.55L158.15 29ZM153 25V21H143V35H153V31H155V35C155 35.55 154.804 36.0208 154.413 36.4125C154.021 36.8042 153.55 37 153 37H143C142.45 37 141.979 36.8042 141.588 36.4125C141.196 36.0208 141 35.55 141 35V21C141 20.45 141.196 19.9792 141.588 19.5875C141.979 19.1958 142.45 19 143 19H153C153.55 19 154.021 19.1958 154.413 19.5875C154.804 19.9792 155 20.45 155 21V25H153Z" fill="#1C1B1F" fill-opacity="0.5"/>
</g>
</g>
<defs>
<filter id="filter0_d_231_595" x="0" y="0" width="368" height="58" filterUnits="userSpaceOnUse" color-interpolation-filters="sRGB">
<feFlood flood-opacity="0" result="BackgroundImageFix"/>
<feColorMatrix in="SourceAlpha" type="matrix" values="0 0 0 0 0 0 0 0 0 0 0 0 0 0 0 0 0 0 127 0" result="hardAlpha"/>
<feOffset dy="1"/>
<feGaussianBlur stdDeviation="2"/>
<feComposite in2="hardAlpha" operator="out"/>
<feColorMatrix type="matrix" values="0 0 0 0 0 0 0 0 0 0 0 0 0 0 0 0 0 0 0.25 0"/>
<feBlend mode="normal" in2="BackgroundImageFix" result="effect1_dropShadow_231_595"/>
<feBlend mode="normal" in="SourceGraphic" in2="effect1_dropShadow_231_595" result="shape"/>
</filter>
</defs>
</svg>
