<svg width="372" height="62" viewBox="0 0 372 62" fill="none" xmlns="http://www.w3.org/2000/svg">
<g filter="url(#filter0_di_1_1021)">
<rect x="6" y="4" width="360" height="50" rx="10" fill="url(#paint0_linear_1_1021)"/>
<rect x="7" y="5" width="358" height="48" rx="9" stroke="white" stroke-width="2"/>
<path d="M151.133 34.5V23.0469H154.844C156.25 23.0469 157.167 23.1042 157.594 23.2188C158.25 23.3906 158.799 23.7656 159.242 24.3438C159.685 24.9167 159.906 25.6589 159.906 26.5703C159.906 27.2734 159.779 27.8646 159.523 28.3438C159.268 28.8229 158.943 29.2005 158.547 29.4766C158.156 29.7474 157.758 29.9271 157.352 30.0156C156.799 30.125 156 30.1797 154.953 30.1797H153.445V34.5H151.133ZM153.445 24.9844V28.2344H154.711C155.622 28.2344 156.232 28.1745 156.539 28.0547C156.846 27.9349 157.086 27.7474 157.258 27.4922C157.435 27.237 157.523 26.9401 157.523 26.6016C157.523 26.1849 157.401 25.8411 157.156 25.5703C156.911 25.2995 156.602 25.1302 156.227 25.0625C155.951 25.0104 155.396 24.9844 154.562 24.9844H153.445ZM161.789 25.0781V23.0469H163.984V25.0781H161.789ZM161.789 34.5V26.2031H163.984V34.5H161.789ZM166.039 35.0469L168.547 35.3516C168.589 35.6432 168.685 35.8438 168.836 35.9531C169.044 36.1094 169.372 36.1875 169.82 36.1875C170.393 36.1875 170.823 36.1016 171.109 35.9297C171.302 35.8151 171.448 35.6302 171.547 35.375C171.615 35.1927 171.648 34.8568 171.648 34.3672V33.1562C170.992 34.0521 170.164 34.5 169.164 34.5C168.049 34.5 167.167 34.0286 166.516 33.0859C166.005 32.3411 165.75 31.4141 165.75 30.3047C165.75 28.9141 166.083 27.8516 166.75 27.1172C167.422 26.3828 168.255 26.0156 169.25 26.0156C170.276 26.0156 171.122 26.4661 171.789 27.3672V26.2031H173.844V33.6484C173.844 34.6276 173.763 35.3594 173.602 35.8438C173.44 36.3281 173.214 36.7083 172.922 36.9844C172.63 37.2604 172.24 37.4766 171.75 37.6328C171.266 37.7891 170.651 37.8672 169.906 37.8672C168.5 37.8672 167.503 37.625 166.914 37.1406C166.326 36.6615 166.031 36.0521 166.031 35.3125C166.031 35.2396 166.034 35.151 166.039 35.0469ZM168 30.1797C168 31.0599 168.169 31.7057 168.508 32.1172C168.852 32.5234 169.273 32.7266 169.773 32.7266C170.31 32.7266 170.763 32.5182 171.133 32.1016C171.503 31.6797 171.688 31.0573 171.688 30.2344C171.688 29.375 171.51 28.737 171.156 28.3203C170.802 27.9036 170.354 27.6953 169.812 27.6953C169.286 27.6953 168.852 27.901 168.508 28.3125C168.169 28.7188 168 29.3411 168 30.1797ZM175.859 26.2031H177.883V27.3359C178.607 26.4557 179.469 26.0156 180.469 26.0156C181 26.0156 181.461 26.125 181.852 26.3438C182.242 26.5625 182.562 26.8932 182.812 27.3359C183.177 26.8932 183.57 26.5625 183.992 26.3438C184.414 26.125 184.865 26.0156 185.344 26.0156C185.953 26.0156 186.469 26.1406 186.891 26.3906C187.312 26.6354 187.628 26.9974 187.836 27.4766C187.987 27.8307 188.062 28.4036 188.062 29.1953V34.5H185.867V29.7578C185.867 28.9349 185.792 28.4036 185.641 28.1641C185.438 27.8516 185.125 27.6953 184.703 27.6953C184.396 27.6953 184.107 27.7891 183.836 27.9766C183.565 28.1641 183.37 28.4401 183.25 28.8047C183.13 29.1641 183.07 29.7344 183.07 30.5156V34.5H180.875V29.9531C180.875 29.1458 180.836 28.625 180.758 28.3906C180.68 28.1562 180.557 27.9818 180.391 27.8672C180.229 27.7526 180.008 27.6953 179.727 27.6953C179.388 27.6953 179.083 27.7865 178.812 27.9688C178.542 28.151 178.346 28.4141 178.227 28.7578C178.112 29.1016 178.055 29.6719 178.055 30.4688V34.5H175.859V26.2031ZM195.062 31.8594L197.25 32.2266C196.969 33.0286 196.523 33.6406 195.914 34.0625C195.31 34.4792 194.552 34.6875 193.641 34.6875C192.198 34.6875 191.13 34.2161 190.438 33.2734C189.891 32.5182 189.617 31.5651 189.617 30.4141C189.617 29.0391 189.977 27.9635 190.695 27.1875C191.414 26.4062 192.323 26.0156 193.422 26.0156C194.656 26.0156 195.63 26.4245 196.344 27.2422C197.057 28.0547 197.398 29.3021 197.367 30.9844H191.867C191.883 31.6354 192.06 32.1432 192.398 32.5078C192.737 32.8672 193.159 33.0469 193.664 33.0469C194.008 33.0469 194.297 32.9531 194.531 32.7656C194.766 32.5781 194.943 32.276 195.062 31.8594ZM195.188 29.6406C195.172 29.0052 195.008 28.5234 194.695 28.1953C194.383 27.862 194.003 27.6953 193.555 27.6953C193.076 27.6953 192.68 27.8698 192.367 28.2188C192.055 28.5677 191.901 29.0417 191.906 29.6406H195.188ZM206.711 34.5H204.516V30.2656C204.516 29.3698 204.469 28.7917 204.375 28.5312C204.281 28.2656 204.128 28.0599 203.914 27.9141C203.706 27.7682 203.453 27.6953 203.156 27.6953C202.776 27.6953 202.435 27.7995 202.133 28.0078C201.831 28.2161 201.622 28.4922 201.508 28.8359C201.398 29.1797 201.344 29.8151 201.344 30.7422V34.5H199.148V26.2031H201.188V27.4219C201.911 26.4844 202.823 26.0156 203.922 26.0156C204.406 26.0156 204.849 26.1042 205.25 26.2812C205.651 26.4531 205.953 26.6745 206.156 26.9453C206.365 27.2161 206.508 27.5234 206.586 27.8672C206.669 28.2109 206.711 28.7031 206.711 29.3438V34.5ZM212.75 26.2031V27.9531H211.25V31.2969C211.25 31.974 211.263 32.3698 211.289 32.4844C211.32 32.5938 211.385 32.6849 211.484 32.7578C211.589 32.8307 211.714 32.8672 211.859 32.8672C212.062 32.8672 212.357 32.7969 212.742 32.6562L212.93 34.3594C212.419 34.5781 211.841 34.6875 211.195 34.6875C210.799 34.6875 210.443 34.6224 210.125 34.4922C209.807 34.3568 209.573 34.1849 209.422 33.9766C209.276 33.763 209.174 33.4766 209.117 33.1172C209.07 32.862 209.047 32.3464 209.047 31.5703V27.9531H208.039V26.2031H209.047V24.5547L211.25 23.2734V26.2031H212.75ZM213.5 32.1328L215.703 31.7969C215.797 32.224 215.987 32.5495 216.273 32.7734C216.56 32.9922 216.961 33.1016 217.477 33.1016C218.044 33.1016 218.471 32.9974 218.758 32.7891C218.951 32.6432 219.047 32.4479 219.047 32.2031C219.047 32.0365 218.995 31.8984 218.891 31.7891C218.781 31.6849 218.536 31.5885 218.156 31.5C216.385 31.1094 215.263 30.7526 214.789 30.4297C214.133 29.9818 213.805 29.3594 213.805 28.5625C213.805 27.8438 214.089 27.2396 214.656 26.75C215.224 26.2604 216.104 26.0156 217.297 26.0156C218.432 26.0156 219.276 26.2005 219.828 26.5703C220.38 26.9401 220.76 27.487 220.969 28.2109L218.898 28.5938C218.81 28.2708 218.641 28.0234 218.391 27.8516C218.146 27.6797 217.794 27.5938 217.336 27.5938C216.758 27.5938 216.344 27.6745 216.094 27.8359C215.927 27.9505 215.844 28.099 215.844 28.2812C215.844 28.4375 215.917 28.5703 216.062 28.6797C216.26 28.8255 216.943 29.0312 218.109 29.2969C219.281 29.5625 220.099 29.888 220.562 30.2734C221.021 30.6641 221.25 31.2083 221.25 31.9062C221.25 32.6667 220.932 33.3203 220.297 33.8672C219.661 34.4141 218.721 34.6875 217.477 34.6875C216.346 34.6875 215.451 34.4583 214.789 34C214.133 33.5417 213.703 32.9193 213.5 32.1328Z" fill="black"/>
</g>
<defs>
<filter id="filter0_di_1_1021" x="0" y="0" width="372" height="62" filterUnits="userSpaceOnUse" color-interpolation-filters="sRGB">
<feFlood flood-opacity="0" result="BackgroundImageFix"/>
<feColorMatrix in="SourceAlpha" type="matrix" values="0 0 0 0 0 0 0 0 0 0 0 0 0 0 0 0 0 0 127 0" result="hardAlpha"/>
<feOffset dy="2"/>
<feGaussianBlur stdDeviation="3"/>
<feComposite in2="hardAlpha" operator="out"/>
<feColorMatrix type="matrix" values="0 0 0 0 0.133333 0 0 0 0 0.0885417 0 0 0 0 0.3125 0 0 0 0.18 0"/>
<feBlend mode="normal" in2="BackgroundImageFix" result="effect1_dropShadow_1_1021"/>
<feBlend mode="normal" in="SourceGraphic" in2="effect1_dropShadow_1_1021" result="shape"/>
<feColorMatrix in="SourceAlpha" type="matrix" values="0 0 0 0 0 0 0 0 0 0 0 0 0 0 0 0 0 0 127 0" result="hardAlpha"/>
<feOffset dy="3"/>
<feGaussianBlur stdDeviation="2"/>
<feComposite in2="hardAlpha" operator="arithmetic" k2="-1" k3="1"/>
<feColorMatrix type="matrix" values="0 0 0 0 0.0955083 0 0 0 0 0.09125 0 0 0 0 0.304167 0 0 0 0.25 0"/>
<feBlend mode="normal" in2="shape" result="effect2_innerShadow_1_1021"/>
</filter>
<linearGradient id="paint0_linear_1_1021" x1="196" y1="4" x2="196" y2="74" gradientUnits="userSpaceOnUse">
<stop offset="0.503463" stop-color="#FFFDF5"/>
<stop offset="1" stop-color="#999999"/>
</linearGradient>
</defs>
</svg>
