<svg width="372" height="67" viewBox="0 0 372 67" fill="none" xmlns="http://www.w3.org/2000/svg">
<g filter="url(#filter0_di_264_992)">
<rect x="6" y="4" width="360" height="55" rx="10" fill="url(#paint0_linear_264_992)"/>
<rect x="7" y="5" width="358" height="53" rx="9" stroke="white" stroke-width="2"/>
<path d="M151.133 37V25.5469H154.844C156.25 25.5469 157.167 25.6042 157.594 25.7188C158.25 25.8906 158.799 26.2656 159.242 26.8438C159.685 27.4167 159.906 28.1589 159.906 29.0703C159.906 29.7734 159.779 30.3646 159.523 30.8438C159.268 31.3229 158.943 31.7005 158.547 31.9766C158.156 32.2474 157.758 32.4271 157.352 32.5156C156.799 32.625 156 32.6797 154.953 32.6797H153.445V37H151.133ZM153.445 27.4844V30.7344H154.711C155.622 30.7344 156.232 30.6745 156.539 30.5547C156.846 30.4349 157.086 30.2474 157.258 29.9922C157.435 29.737 157.523 29.4401 157.523 29.1016C157.523 28.6849 157.401 28.3411 157.156 28.0703C156.911 27.7995 156.602 27.6302 156.227 27.5625C155.951 27.5104 155.396 27.4844 154.562 27.4844H153.445ZM161.789 27.5781V25.5469H163.984V27.5781H161.789ZM161.789 37V28.7031H163.984V37H161.789ZM166.039 37.5469L168.547 37.8516C168.589 38.1432 168.685 38.3438 168.836 38.4531C169.044 38.6094 169.372 38.6875 169.82 38.6875C170.393 38.6875 170.823 38.6016 171.109 38.4297C171.302 38.3151 171.448 38.1302 171.547 37.875C171.615 37.6927 171.648 37.3568 171.648 36.8672V35.6562C170.992 36.5521 170.164 37 169.164 37C168.049 37 167.167 36.5286 166.516 35.5859C166.005 34.8411 165.75 33.9141 165.75 32.8047C165.75 31.4141 166.083 30.3516 166.75 29.6172C167.422 28.8828 168.255 28.5156 169.25 28.5156C170.276 28.5156 171.122 28.9661 171.789 29.8672V28.7031H173.844V36.1484C173.844 37.1276 173.763 37.8594 173.602 38.3438C173.44 38.8281 173.214 39.2083 172.922 39.4844C172.63 39.7604 172.24 39.9766 171.75 40.1328C171.266 40.2891 170.651 40.3672 169.906 40.3672C168.5 40.3672 167.503 40.125 166.914 39.6406C166.326 39.1615 166.031 38.5521 166.031 37.8125C166.031 37.7396 166.034 37.651 166.039 37.5469ZM168 32.6797C168 33.5599 168.169 34.2057 168.508 34.6172C168.852 35.0234 169.273 35.2266 169.773 35.2266C170.31 35.2266 170.763 35.0182 171.133 34.6016C171.503 34.1797 171.688 33.5573 171.688 32.7344C171.688 31.875 171.51 31.237 171.156 30.8203C170.802 30.4036 170.354 30.1953 169.812 30.1953C169.286 30.1953 168.852 30.401 168.508 30.8125C168.169 31.2188 168 31.8411 168 32.6797ZM175.859 28.7031H177.883V29.8359C178.607 28.9557 179.469 28.5156 180.469 28.5156C181 28.5156 181.461 28.625 181.852 28.8438C182.242 29.0625 182.562 29.3932 182.812 29.8359C183.177 29.3932 183.57 29.0625 183.992 28.8438C184.414 28.625 184.865 28.5156 185.344 28.5156C185.953 28.5156 186.469 28.6406 186.891 28.8906C187.312 29.1354 187.628 29.4974 187.836 29.9766C187.987 30.3307 188.062 30.9036 188.062 31.6953V37H185.867V32.2578C185.867 31.4349 185.792 30.9036 185.641 30.6641C185.438 30.3516 185.125 30.1953 184.703 30.1953C184.396 30.1953 184.107 30.2891 183.836 30.4766C183.565 30.6641 183.37 30.9401 183.25 31.3047C183.13 31.6641 183.07 32.2344 183.07 33.0156V37H180.875V32.4531C180.875 31.6458 180.836 31.125 180.758 30.8906C180.68 30.6562 180.557 30.4818 180.391 30.3672C180.229 30.2526 180.008 30.1953 179.727 30.1953C179.388 30.1953 179.083 30.2865 178.812 30.4688C178.542 30.651 178.346 30.9141 178.227 31.2578C178.112 31.6016 178.055 32.1719 178.055 32.9688V37H175.859V28.7031ZM195.062 34.3594L197.25 34.7266C196.969 35.5286 196.523 36.1406 195.914 36.5625C195.31 36.9792 194.552 37.1875 193.641 37.1875C192.198 37.1875 191.13 36.7161 190.438 35.7734C189.891 35.0182 189.617 34.0651 189.617 32.9141C189.617 31.5391 189.977 30.4635 190.695 29.6875C191.414 28.9062 192.323 28.5156 193.422 28.5156C194.656 28.5156 195.63 28.9245 196.344 29.7422C197.057 30.5547 197.398 31.8021 197.367 33.4844H191.867C191.883 34.1354 192.06 34.6432 192.398 35.0078C192.737 35.3672 193.159 35.5469 193.664 35.5469C194.008 35.5469 194.297 35.4531 194.531 35.2656C194.766 35.0781 194.943 34.776 195.062 34.3594ZM195.188 32.1406C195.172 31.5052 195.008 31.0234 194.695 30.6953C194.383 30.362 194.003 30.1953 193.555 30.1953C193.076 30.1953 192.68 30.3698 192.367 30.7188C192.055 31.0677 191.901 31.5417 191.906 32.1406H195.188ZM206.711 37H204.516V32.7656C204.516 31.8698 204.469 31.2917 204.375 31.0312C204.281 30.7656 204.128 30.5599 203.914 30.4141C203.706 30.2682 203.453 30.1953 203.156 30.1953C202.776 30.1953 202.435 30.2995 202.133 30.5078C201.831 30.7161 201.622 30.9922 201.508 31.3359C201.398 31.6797 201.344 32.3151 201.344 33.2422V37H199.148V28.7031H201.188V29.9219C201.911 28.9844 202.823 28.5156 203.922 28.5156C204.406 28.5156 204.849 28.6042 205.25 28.7812C205.651 28.9531 205.953 29.1745 206.156 29.4453C206.365 29.7161 206.508 30.0234 206.586 30.3672C206.669 30.7109 206.711 31.2031 206.711 31.8438V37ZM212.75 28.7031V30.4531H211.25V33.7969C211.25 34.474 211.263 34.8698 211.289 34.9844C211.32 35.0938 211.385 35.1849 211.484 35.2578C211.589 35.3307 211.714 35.3672 211.859 35.3672C212.062 35.3672 212.357 35.2969 212.742 35.1562L212.93 36.8594C212.419 37.0781 211.841 37.1875 211.195 37.1875C210.799 37.1875 210.443 37.1224 210.125 36.9922C209.807 36.8568 209.573 36.6849 209.422 36.4766C209.276 36.263 209.174 35.9766 209.117 35.6172C209.07 35.362 209.047 34.8464 209.047 34.0703V30.4531H208.039V28.7031H209.047V27.0547L211.25 25.7734V28.7031H212.75ZM213.5 34.6328L215.703 34.2969C215.797 34.724 215.987 35.0495 216.273 35.2734C216.56 35.4922 216.961 35.6016 217.477 35.6016C218.044 35.6016 218.471 35.4974 218.758 35.2891C218.951 35.1432 219.047 34.9479 219.047 34.7031C219.047 34.5365 218.995 34.3984 218.891 34.2891C218.781 34.1849 218.536 34.0885 218.156 34C216.385 33.6094 215.263 33.2526 214.789 32.9297C214.133 32.4818 213.805 31.8594 213.805 31.0625C213.805 30.3438 214.089 29.7396 214.656 29.25C215.224 28.7604 216.104 28.5156 217.297 28.5156C218.432 28.5156 219.276 28.7005 219.828 29.0703C220.38 29.4401 220.76 29.987 220.969 30.7109L218.898 31.0938C218.81 30.7708 218.641 30.5234 218.391 30.3516C218.146 30.1797 217.794 30.0938 217.336 30.0938C216.758 30.0938 216.344 30.1745 216.094 30.3359C215.927 30.4505 215.844 30.599 215.844 30.7812C215.844 30.9375 215.917 31.0703 216.062 31.1797C216.26 31.3255 216.943 31.5312 218.109 31.7969C219.281 32.0625 220.099 32.388 220.562 32.7734C221.021 33.1641 221.25 33.7083 221.25 34.4062C221.25 35.1667 220.932 35.8203 220.297 36.3672C219.661 36.9141 218.721 37.1875 217.477 37.1875C216.346 37.1875 215.451 36.9583 214.789 36.5C214.133 36.0417 213.703 35.4193 213.5 34.6328Z" fill="white"/>
</g>
<defs>
<filter id="filter0_di_264_992" x="0" y="0" width="372" height="67" filterUnits="userSpaceOnUse" color-interpolation-filters="sRGB">
<feFlood flood-opacity="0" result="BackgroundImageFix"/>
<feColorMatrix in="SourceAlpha" type="matrix" values="0 0 0 0 0 0 0 0 0 0 0 0 0 0 0 0 0 0 127 0" result="hardAlpha"/>
<feOffset dy="2"/>
<feGaussianBlur stdDeviation="3"/>
<feComposite in2="hardAlpha" operator="out"/>
<feColorMatrix type="matrix" values="0 0 0 0 0.133333 0 0 0 0 0.0885417 0 0 0 0 0.3125 0 0 0 0.18 0"/>
<feBlend mode="normal" in2="BackgroundImageFix" result="effect1_dropShadow_264_992"/>
<feBlend mode="normal" in="SourceGraphic" in2="effect1_dropShadow_264_992" result="shape"/>
<feColorMatrix in="SourceAlpha" type="matrix" values="0 0 0 0 0 0 0 0 0 0 0 0 0 0 0 0 0 0 127 0" result="hardAlpha"/>
<feOffset dy="3"/>
<feGaussianBlur stdDeviation="2"/>
<feComposite in2="hardAlpha" operator="arithmetic" k2="-1" k3="1"/>
<feColorMatrix type="matrix" values="0 0 0 0 0.0955083 0 0 0 0 0.09125 0 0 0 0 0.304167 0 0 0 0.25 0"/>
<feBlend mode="normal" in2="shape" result="effect2_innerShadow_264_992"/>
</filter>
<linearGradient id="paint0_linear_264_992" x1="196" y1="4" x2="196" y2="81" gradientUnits="userSpaceOnUse">
<stop offset="0.266745" stop-color="#FF4B4B"/>
<stop offset="1" stop-color="#800000"/>
</linearGradient>
</defs>
</svg>
