<svg width="153" height="27" viewBox="0 0 153 27" fill="none" xmlns="http://www.w3.org/2000/svg">
<path d="M6.53857 26L0.557129 0.946289H5.73535L9.51221 18.1558L14.0923 0.946289H20.1079L24.5 18.4463L28.3452 0.946289H33.438L27.354 26H21.9878L16.9976 7.26953L12.0244 26H6.53857ZM45.8623 20.2236L50.6475 21.0269C50.0322 22.7814 49.0581 24.1201 47.7251 25.043C46.4035 25.9544 44.7458 26.4102 42.752 26.4102C39.596 26.4102 37.2604 25.3791 35.7451 23.3169C34.5488 21.6649 33.9507 19.5799 33.9507 17.062C33.9507 14.0542 34.7368 11.7015 36.3091 10.0039C37.8813 8.29492 39.8695 7.44043 42.2734 7.44043C44.9736 7.44043 47.1042 8.3348 48.665 10.1235C50.2259 11.9009 50.9722 14.6296 50.9038 18.3096H38.8726C38.9067 19.7337 39.2941 20.8446 40.0347 21.6421C40.7752 22.4282 41.6981 22.8213 42.8032 22.8213C43.5552 22.8213 44.1875 22.6162 44.7002 22.2061C45.2129 21.7959 45.6003 21.1351 45.8623 20.2236ZM46.1357 15.3701C46.1016 13.9801 45.7427 12.9263 45.0591 12.2085C44.3755 11.4793 43.5438 11.1147 42.564 11.1147C41.5158 11.1147 40.6499 11.4964 39.9663 12.2598C39.2827 13.0231 38.9466 14.0599 38.958 15.3701H46.1357ZM54.8345 26V0.946289H59.6367V26H54.8345ZM80.4009 13.2168L75.667 14.0713C75.5075 13.1257 75.1429 12.4136 74.5732 11.9351C74.015 11.4565 73.2858 11.2173 72.3857 11.2173C71.1895 11.2173 70.2324 11.6331 69.5146 12.4648C68.8083 13.2852 68.4551 14.6637 68.4551 16.6006C68.4551 18.7539 68.814 20.2749 69.5317 21.1636C70.2609 22.0522 71.235 22.4966 72.4541 22.4966C73.3656 22.4966 74.1118 22.2402 74.6929 21.7275C75.2739 21.2035 75.6841 20.3091 75.9233 19.0444L80.6401 19.8477C80.1502 22.0124 79.2103 23.6473 77.8203 24.7524C76.4303 25.8576 74.5675 26.4102 72.2319 26.4102C69.5773 26.4102 67.4582 25.5728 65.8745 23.8979C64.3022 22.2231 63.5161 19.9046 63.5161 16.9424C63.5161 13.946 64.3079 11.616 65.8916 9.95264C67.4753 8.27783 69.6172 7.44043 72.3174 7.44043C74.5277 7.44043 76.2822 7.91895 77.5811 8.87598C78.8913 9.82161 79.8312 11.2686 80.4009 13.2168ZM82.9473 16.6689C82.9473 15.0739 83.3403 13.5301 84.1265 12.0376C84.9126 10.5451 86.0234 9.40576 87.459 8.61963C88.9059 7.8335 90.5181 7.44043 92.2954 7.44043C95.0412 7.44043 97.2913 8.3348 99.0459 10.1235C100.8 11.9009 101.678 14.151 101.678 16.874C101.678 19.6198 100.789 21.8984 99.0117 23.71C97.2458 25.5101 95.0184 26.4102 92.3296 26.4102C90.6662 26.4102 89.0768 26.0342 87.5615 25.2822C86.0576 24.5303 84.9126 23.4308 84.1265 21.9839C83.3403 20.5256 82.9473 18.7539 82.9473 16.6689ZM87.8691 16.9253C87.8691 18.7254 88.2964 20.104 89.1509 21.061C90.0054 22.0181 91.0592 22.4966 92.3125 22.4966C93.5658 22.4966 94.6139 22.0181 95.457 21.061C96.3115 20.104 96.7388 18.714 96.7388 16.8911C96.7388 15.1138 96.3115 13.7466 95.457 12.7896C94.6139 11.8325 93.5658 11.354 92.3125 11.354C91.0592 11.354 90.0054 11.8325 89.1509 12.7896C88.2964 13.7466 87.8691 15.1252 87.8691 16.9253ZM105.096 7.85059H109.522V10.3286C111.106 8.40316 112.991 7.44043 115.179 7.44043C116.341 7.44043 117.349 7.67969 118.204 8.1582C119.058 8.63672 119.759 9.36019 120.306 10.3286C121.103 9.36019 121.963 8.63672 122.886 8.1582C123.809 7.67969 124.795 7.44043 125.843 7.44043C127.176 7.44043 128.304 7.71387 129.227 8.26074C130.149 8.79622 130.839 9.58805 131.294 10.6362C131.625 11.411 131.79 12.6642 131.79 14.396V26H126.988V15.6265C126.988 13.8263 126.823 12.6642 126.492 12.1401C126.048 11.4565 125.364 11.1147 124.441 11.1147C123.769 11.1147 123.137 11.3198 122.544 11.73C121.952 12.1401 121.525 12.744 121.263 13.5415C121.001 14.3276 120.87 15.5752 120.87 17.2842V26H116.067V16.0537C116.067 14.2878 115.982 13.1484 115.811 12.6357C115.64 12.123 115.372 11.7414 115.008 11.4907C114.655 11.2401 114.17 11.1147 113.555 11.1147C112.815 11.1147 112.148 11.3141 111.556 11.7129C110.963 12.1117 110.536 12.687 110.274 13.439C110.023 14.1909 109.898 15.4385 109.898 17.1816V26H105.096V7.85059ZM147.103 20.2236L151.888 21.0269C151.272 22.7814 150.298 24.1201 148.965 25.043C147.644 25.9544 145.986 26.4102 143.992 26.4102C140.836 26.4102 138.501 25.3791 136.985 23.3169C135.789 21.6649 135.191 19.5799 135.191 17.062C135.191 14.0542 135.977 11.7015 137.549 10.0039C139.122 8.29492 141.11 7.44043 143.514 7.44043C146.214 7.44043 148.344 8.3348 149.905 10.1235C151.466 11.9009 152.212 14.6296 152.144 18.3096H140.113C140.147 19.7337 140.534 20.8446 141.275 21.6421C142.015 22.4282 142.938 22.8213 144.043 22.8213C144.795 22.8213 145.428 22.6162 145.94 22.2061C146.453 21.7959 146.84 21.1351 147.103 20.2236ZM147.376 15.3701C147.342 13.9801 146.983 12.9263 146.299 12.2085C145.616 11.4793 144.784 11.1147 143.804 11.1147C142.756 11.1147 141.89 11.4964 141.207 12.2598C140.523 13.0231 140.187 14.0599 140.198 15.3701H147.376Z" fill="#0F4861"/>
</svg>
